<svg id="Layer_1" data-name="Layer 1" xmlns="http://www.w3.org/2000/svg" viewBox="0 0 556.52 556.52"><defs><style>.cls-1{fill:#c0272d;}</style></defs><title>Feedback 4</title><path class="cls-1" d="M498.92,554.94c44.87,2.28,80,19.89,102.6,59.1a62.38,62.38,0,0,1,3.92,7.87c3.28,8.17,2.49,15.48-6.16,19.61s-15.13.18-18.87-7.79a85.16,85.16,0,0,0-39-40.49,91.41,91.41,0,0,0-123.19,38.12c-5.76,10.77-12.89,14.14-20.86,9.83-7.75-4.18-9.32-12.35-3.66-23C416.26,575.83,452.77,556.73,498.92,554.94Z" transform="translate(-220.51 -220.37)"/><path class="cls-1" d="M498.78,220.37C345.1,220.37,220.51,345,220.51,498.63S345.1,776.89,498.78,776.89,777,652.31,777,498.63,652.46,220.37,498.78,220.37Zm0,496.9c-120.75,0-218.63-97.89-218.63-218.63S378,280,498.78,280s218.63,97.89,218.63,218.63S619.52,717.27,498.78,717.27Z" transform="translate(-220.51 -220.37)"/><circle class="cls-1" cx="340.6" cy="218.63" r="32.52"/><circle class="cls-1" cx="215.92" cy="218.63" r="32.52"/></svg>