<svg id="Layer_1" data-name="Layer 1" xmlns="http://www.w3.org/2000/svg" viewBox="0 0 556.52 556.52"><defs><style>.cls-1{fill:#8bc53f;}</style></defs><title>Feedback 1</title><path class="cls-1" d="M570.13,402.44a40.58,40.58,0,0,1,39.75,37c.57,7-1.1,12.8-8.74,14.3-8,1.57-12.7-2.62-13.86-10.34-1.56-10.41-6.54-17.37-17.66-17.42s-16.21,7.2-17.76,17.41c-1.12,7.36-5.09,11.39-12.68,10.5-8.43-1-10.48-6.84-10-14.34C530.6,419.11,549.26,402.18,570.13,402.44Z" transform="translate(-221.74 -221.74)"/><path class="cls-1" d="M431,402.44a40.58,40.58,0,0,1,39.75,37c.57,7-1.1,12.8-8.74,14.3-8,1.57-12.7-2.62-13.86-10.34C446.6,433,441.62,426,430.49,425.94s-16.21,7.2-17.76,17.41c-1.12,7.36-5.09,11.39-12.68,10.5-8.43-1-10.48-6.84-10-14.34C391.47,419.11,410.13,402.18,431,402.44Z" transform="translate(-221.74 -221.74)"/><path class="cls-1" d="M499.86,644.58c-44.87-2.28-80-19.89-102.6-59.1a62.38,62.38,0,0,1-3.92-7.87c-3.28-8.17-2.49-15.48,6.16-19.61s15.13-.18,18.87,7.79a85.16,85.16,0,0,0,39,40.49,91.41,91.41,0,0,0,123.19-38.12c5.76-10.77,12.89-14.14,20.86-9.83,7.75,4.18,9.32,12.35,3.66,23C582.52,623.69,546,642.79,499.86,644.58Z" transform="translate(-221.74 -221.74)"/><path class="cls-1" d="M500,221.74c-153.68,0-278.26,124.58-278.26,278.26S346.32,778.26,500,778.26,778.26,653.68,778.26,500,653.68,221.74,500,221.74Zm0,496.9c-120.75,0-218.63-97.89-218.63-218.63S379.25,281.37,500,281.37,718.63,379.25,718.63,500,620.75,718.63,500,718.63Z" transform="translate(-221.74 -221.74)"/></svg>