<svg id="Layer_1" data-name="Layer 1" xmlns="http://www.w3.org/2000/svg" viewBox="0 0 556.52 556.52"><defs><style>.cls-1{fill:#f3bc21;}</style></defs><title>Feedback 2</title><path class="cls-1" d="M499.86,644.58c-44.87-2.28-80-19.89-102.6-59.1a62.38,62.38,0,0,1-3.92-7.87c-3.28-8.17-2.49-15.48,6.16-19.61s15.13-.18,18.87,7.79a85.16,85.16,0,0,0,39,40.49,91.41,91.41,0,0,0,123.19-38.12c5.76-10.77,12.89-14.14,20.86-9.83,7.75,4.18,9.32,12.35,3.66,23C582.52,623.69,546,642.79,499.86,644.58Z" transform="translate(-221.74 -221.74)"/><path class="cls-1" d="M500,221.74c-153.68,0-278.26,124.58-278.26,278.26S346.32,778.26,500,778.26,778.26,653.68,778.26,500,653.68,221.74,500,221.74Zm0,496.9c-120.75,0-218.63-97.89-218.63-218.63S379.25,281.37,500,281.37,718.63,379.25,718.63,500,620.75,718.63,500,718.63Z" transform="translate(-221.74 -221.74)"/><circle class="cls-1" cx="340.6" cy="218.63" r="32.52"/><circle class="cls-1" cx="215.92" cy="218.63" r="32.52"/></svg>