<svg id="Layer_1" data-name="Layer 1" xmlns="http://www.w3.org/2000/svg" viewBox="0 0 556.52 556.52"><defs><style>.cls-1{fill:#f05a24;}</style></defs><title>Feedback 3</title><path class="cls-1" d="M570.13,402.44a40.58,40.58,0,0,1,39.75,37c.57,7-1.1,12.8-8.74,14.3-8,1.57-12.7-2.62-13.86-10.34-1.56-10.41-6.54-17.37-17.66-17.42s-16.21,7.2-17.76,17.41c-1.12,7.36-5.09,11.39-12.68,10.5-8.43-1-10.48-6.84-10-14.34C530.6,419.11,549.26,402.18,570.13,402.44Z" transform="translate(-221.74 -221.74)"/><path class="cls-1" d="M431,402.44a40.58,40.58,0,0,1,39.75,37c.57,7-1.1,12.8-8.74,14.3-8,1.57-12.7-2.62-13.86-10.34C446.6,433,441.62,426,430.49,425.94s-16.21,7.2-17.76,17.41c-1.12,7.36-5.09,11.39-12.68,10.5-8.43-1-10.48-6.84-10-14.34C391.47,419.11,410.13,402.18,431,402.44Z" transform="translate(-221.74 -221.74)"/><path class="cls-1" d="M500,221.74c-153.68,0-278.26,124.58-278.26,278.26S346.32,778.26,500,778.26,778.26,653.68,778.26,500,653.68,221.74,500,221.74Zm0,496.9c-120.75,0-218.63-97.89-218.63-218.63S379.25,281.37,500,281.37,718.63,379.25,718.63,500,620.75,718.63,500,718.63Z" transform="translate(-221.74 -221.74)"/><line class="cls-1" x1="188.82" y1="377.64" x2="367.7" y2="377.64"/><path class="cls-1" d="M589.44,615.94H410.56a16.56,16.56,0,0,1,0-33.13H589.44a16.56,16.56,0,1,1,0,33.13Z" transform="translate(-221.74 -221.74)"/></svg>